# xmcd CD database file
#
# Track frame offsets:
#	150
#	12992
#	25472
#	37450
#	50925
#	62792
#	76262
#	87662
#	105295
#	123385
#	137185
#	151327
#	163587
#	175750
#	188702
#	200237
#	217487
#	230125
#	242600
#	258122
#
# Disc length: 3622 seconds
#
# Revision: 6
# Processed by: cddbd v1.5.2PL0 Copyright (c) Steve Scherf et al.
# Submitted via: CDex 1.51
#
DISCID=2b0e2414
DTITLE=Otis Redding - The Otis Redding Story (Disc-2)
DYEAR=1987
DGENRE=Soul
TTITLE0=You Don't Miss Your Water
TTITLE1=Satisfaction
TTITLE2=Ole Man Trouble
TTITLE3=Down In The Valley
TTITLE4=I Can't Turn You Loose
TTITLE5=Just One More Day
TTITLE6=Papa's Got A Brand New Bag
TTITLE7=Good To Me
TTITLE8=Cigarettes And Coffee
TTITLE9=Chain Gang
TTITLE10=My Lover's Prayer
TTITLE11=It's Growing
TTITLE12=Fa-Fa-Fa-Fa-Fa (Sad Song)
TTITLE13=I'm Sick Y'all
TTITLE14=Sweet Lorene
TTITLE15=Try A Little Tenderness
TTITLE16=Day Tripper
TTITLE17=Ton Of Joy
TTITLE18=Hawg For You
TTITLE19=Tramp
EXTD=YEAR: 1987
EXTT0=
EXTT1=
EXTT2=
EXTT3=
EXTT4=
EXTT5=
EXTT6=
EXTT7=
EXTT8=
EXTT9=
EXTT10=
EXTT11=
EXTT12=
EXTT13=
EXTT14=
EXTT15=
EXTT16=
EXTT17=
EXTT18=
EXTT19=
PLAYORDER=
